<svg width="115" height="19" viewBox="0 0 115 19" fill="none" xmlns="http://www.w3.org/2000/svg">
<path d="M105 1.66669L107.575 6.88335L113.333 7.72502L109.167 11.7834L110.15 17.5167L105 14.8084L99.85 17.5167L100.833 11.7834L96.6667 7.72502L102.425 6.88335L105 1.66669Z" stroke="#C99E71" stroke-width="2" stroke-linecap="round" stroke-linejoin="round"/>
<path d="M82.3333 1.66699L84.9083 6.88366L90.6667 7.72533L86.5 11.7837L87.4833 17.517L82.3333 14.8087L77.1833 17.517L78.1667 11.7837L74 7.72533L79.7583 6.88366L82.3333 1.66699Z" fill="#C99E71"/>
<path d="M57 1.66699L59.575 6.88366L65.3333 7.72533L61.1667 11.7837L62.15 17.517L57 14.8087L51.85 17.517L52.8333 11.7837L48.6667 7.72533L54.425 6.88366L57 1.66699Z" fill="#C99E71"/>
<path d="M33 1.66669L35.575 6.88335L41.3333 7.72502L37.1667 11.7834L38.15 17.5167L33 14.8084L27.85 17.5167L28.8333 11.7834L24.6667 7.72502L30.425 6.88335L33 1.66669Z" fill="#C99E71"/>
<path d="M9 1.66669L11.575 6.88335L17.3333 7.72502L13.1667 11.7834L14.15 17.5167L9 14.8084L3.85 17.5167L4.83333 11.7834L0.666666 7.72502L6.425 6.88335L9 1.66669Z" fill="#C99E71"/>
</svg>
